<svg xmlns="http://www.w3.org/2000/svg" xmlns:xlink="http://www.w3.org/1999/xlink" viewBox="0 0 224.79 76"><defs><style>.cls-1{fill:url(#linear-gradient);}.cls-2{fill:url(#linear-gradient-2);}.cls-3{fill:url(#linear-gradient-3);}.cls-4{fill:url(#linear-gradient-4);}.cls-5{fill:url(#linear-gradient-5);}.cls-6{fill:url(#linear-gradient-6);}.cls-7{fill:url(#linear-gradient-7);}</style><linearGradient id="linear-gradient" x1="136.92" y1="-4.81" x2="115.87" y2="62.36" gradientTransform="matrix(1, 0, 0, -1, 0, 78.41)" gradientUnits="userSpaceOnUse"><stop offset="0" stop-color="#9056a0"/><stop offset="0.32" stop-color="#8964a2"/><stop offset="0.63" stop-color="#48a0b6"/><stop offset="0.97" stop-color="#43beaf"/></linearGradient><linearGradient id="linear-gradient-2" x1="16.78" y1="24.16" x2="27.83" y2="117.5" gradientTransform="matrix(1, 0, 0, -1, 0, 78.41)" gradientUnits="userSpaceOnUse"><stop offset="0" stop-color="#623694"/><stop offset="0.49" stop-color="#1d82bd"/><stop offset="0.97" stop-color="#43beaf"/></linearGradient><linearGradient id="linear-gradient-3" x1="171.16" y1="19.19" x2="174.45" y2="82.34" gradientTransform="matrix(1, 0, 0, -1, 0, 78.41)" gradientUnits="userSpaceOnUse"><stop offset="0.03" stop-color="#a03794"/><stop offset="0.21" stop-color="#a85d9d"/><stop offset="0.46" stop-color="#8a80a6"/><stop offset="0.97" stop-color="#43beaf"/></linearGradient><linearGradient id="linear-gradient-4" x1="209.57" y1="24.36" x2="210.27" y2="71.76" gradientTransform="matrix(1, 0, 0, -1, 0, 78.41)" gradientUnits="userSpaceOnUse"><stop offset="0" stop-color="#be4b9b"/><stop offset="0.97" stop-color="#a682a8"/></linearGradient><linearGradient id="linear-gradient-5" x1="35.18" y1="9.52" x2="80.27" y2="79.45" xlink:href="#linear-gradient-2"/><linearGradient id="linear-gradient-6" x1="96.65" y1="78.37" x2="76.64" y2="63.94" gradientTransform="matrix(1, 0, 0, -1, 0, 78.41)" gradientUnits="userSpaceOnUse"><stop offset="0" stop-color="#27b6b6"/><stop offset="1" stop-color="#2d9db7"/></linearGradient><linearGradient id="linear-gradient-7" x1="89.17" y1="65.54" x2="86.09" y2="19.45" gradientTransform="matrix(1, 0, 0, -1, 0, 78.41)" gradientUnits="userSpaceOnUse"><stop offset="0" stop-color="#2cb8b4"/><stop offset="1" stop-color="#2e91b9"/></linearGradient></defs><g id="Layer_2" data-name="Layer 2"><g id="Layer_1-2" data-name="Layer 1"><path class="cls-1" d="M112.57,74.42c-1.5-.49-2.93-1.18-4.61-1.87,1.91-2.32,3.74-4.65,5.54-7,0,0,2.09.88,3.08,1.19a14.94,14.94,0,0,0,9.07.08c4.34-1.34,6.37-4.54,7.26-8.71.18-.85.27-1.72.41-2.63-1.83.85-3.49,1.76-5.25,2.44a20,20,0,0,1-26.68-13.49c-2.53-10.06,3.83-20,13.41-22.83A20.24,20.24,0,0,1,132,23.91a4.46,4.46,0,0,0,.55.23V20.61h10.34v1.48q0,14.4,0,28.8a46.39,46.39,0,0,1-.78,10.25,17.9,17.9,0,0,1-14.86,14.4,25.8,25.8,0,0,1-4.77.46A30.49,30.49,0,0,1,112.57,74.42Zm8.31-44.6a10.14,10.14,0,1,0,0,20.26c5.8,0,10.7-4.57,10.59-10.14A10.27,10.27,0,0,0,120.88,29.82Z"/><path class="cls-2" d="M10.42.5c0,.51,0,1,0,1.55l0,19.3v1.47c2-.65,3.86-1.39,5.77-1.82a21.14,21.14,0,0,1,22.9,9.67C43.9,39,41.34,48.85,34,54.37c-7,5.27-14.62,5.83-22.61,2.42l-.82-.35v2.42s-1.21,0-2.79,0L0,58.82V.5ZM20.9,49.75a10.37,10.37,0,0,0,10.73-9.87A10.4,10.4,0,0,0,21.38,29.51c-5.82-.16-10.83,4-10.88,10.07A10.12,10.12,0,0,0,20.9,49.75Z"/><path class="cls-3" d="M163,24.44c.72-.46,1.23-.81,1.76-1.13A15.65,15.65,0,0,1,172.51,21a22.73,22.73,0,0,1,11,1.94c4.63,2.27,7,6.21,7.79,11.1a63.24,63.24,0,0,1,.52,8.6c.08,4.92,0,9.84,0,14.75V59l-8.54,0h-1.53s0-11.66-.16-16.74a25.26,25.26,0,0,0-.87-6.25c-1.73-6-5.49-7.1-10.92-5.22-3.31,1.16-4.65,4.07-5.24,7.21a53.84,53.84,0,0,0-.76,8.32c-.12,3.76,0,12.67,0,12.67s-.33,0-1.37,0c-2.64,0-5.28,0-7.92,0-.91,0-1.26,0-1.26,0s0-34.59,0-51.27V6.54h10s0,.34,0,1.51C163.14,13,163.1,18,163,22.92Z"/><path class="cls-4" d="M194.78,20.87h10.1V6.54l10.58,0V20.89l7.84,0,0,8.7-1.16,0s-3.84,0-5.76,0c-.79,0-1.06.27-1,1,.06,3.88,0,7.76.16,11.63.19,4.2,2.65,6.65,6.83,7.12a8.48,8.48,0,0,0,2.13.15c.07,2.07.24,6.28.28,8.36,0,.37,0,1.09,0,1.09-4.16.06-9,0-12.87-1.78a10.88,10.88,0,0,1-6.2-8.17,48.57,48.57,0,0,1-.79-7.72c-.13-3.39,0-6.79,0-10.19,0-.46,0-.93-.08-1.52l-6.3,0Z"/><path class="cls-5" d="M58.46,23c1.66-.53,3.3-1.14,5-1.58A26.57,26.57,0,0,1,73,21a29,29,0,0,1,5.33,1c-.3.5-.68,1.06-.68,1.06L73,30a10.16,10.16,0,0,0-1.32-.31,14.78,14.78,0,0,0-7.54.76c-3.09,1.29-5.06,3.41-5.15,6.94-.11,4.19-.27,8.39-.38,12.58q-.09,3.84-.09,7.68c0,1,0,1.4,0,1.4-2.32,0-7.5-.06-9.82,0,0,0,0-.44,0-1.5,0-3.63,0-7.27,0-10.91V21.55H58.5S58.5,23,58.46,23Z"/><path class="cls-6" d="M87.35,0,94,6.66,87.35,13.5,81,6.66Z"/><path class="cls-7" d="M82.09,40.1q0-8.68,0-17.39V21.13l10.5,0v1.35q0,17.57,0,35.14c0,1.09,0,1.45,0,1.45H82.07V57.5c0-5.8,0-11.6,0-17.4Z"/></g></g></svg>