<svg width="227" height="78" viewBox="0 0 227 78" fill="none" xmlns="http://www.w3.org/2000/svg">
<path d="M112.566 74.918C111.073 74.427 109.643 73.741 107.957 73.0473C109.867 70.7332 111.701 68.3988 113.5 66C113.5 66 115.587 66.8804 116.585 67.1909C119.601 68.1301 122.596 68.2097 125.651 67.2689C129.993 65.9312 132.017 62.7318 132.91 58.5663C133.093 57.7168 133.178 56.8464 133.316 55.9292C131.495 56.7832 129.827 57.692 128.069 58.3691C116.892 62.6748 104.317 56.4718 101.394 44.8869C98.8561 34.8254 105.224 24.8832 114.799 22.0541C120.884 20.256 126.643 21.0228 132.029 24.4169C132.128 24.4792 132.577 24.6456 132.577 24.6456L132.571 21.1113L142.912 21.1074C142.912 21.1074 142.913 21.7561 142.912 22.5914C142.903 32.1908 142.899 41.7902 142.913 51.3896C142.918 54.8294 142.876 58.25 142.131 61.6435C140.429 69.3848 135.078 74.6135 127.268 76.0389C125.656 76.3332 124.2 76.5 122.5 76.5C118.971 76.5 115.93 76.0239 112.566 74.918ZM120.876 30.3196C114.963 30.3131 110.357 34.7422 110.356 40.4348C110.356 46.1183 114.963 50.5654 120.868 50.5821C126.672 50.5985 131.574 46.0083 131.46 40.4444C131.336 34.4196 126.402 30.1966 120.876 30.3196Z" fill="url(#paint0_linear_801_3)"/>
<path d="M10.4156 1C10.4486 1.51615 10.4159 2.03232 10.4156 2.54846C10.4125 8.98291 10.4003 15.4174 10.3906 21.8518C10.3898 22.3558 10.3905 22.8597 10.3905 23.3198C12.4079 22.6763 14.2495 21.9337 16.1616 21.5054C25.2551 19.4686 34.5611 23.452 39.0567 31.1727C43.8952 39.4822 41.3424 49.3553 34.0128 54.875C27.0216 60.1398 19.3895 60.7016 11.4013 57.2914C11.1181 57.1705 10.8338 57.0521 10.5774 56.9441C10.5774 57.1069 10.5811 59.3307 10.5774 59.3611C10.5736 59.3915 9.37378 59.362 7.79246 59.3611C5.19496 59.3534 2.59749 59.3342 0 59.32V1H10.4156ZM20.8965 50.2565C26.6893 50.3506 31.5016 45.9207 31.6274 40.3784C31.7536 34.8175 27.0971 30.1733 21.3758 30.0142C15.562 29.8526 10.5504 34.0345 10.498 40.0844C10.4478 45.8766 15.0906 50.2313 20.8965 50.2565Z" fill="url(#paint1_linear_801_3)"/>
<path d="M163.044 24.9394C163.757 24.4787 164.271 24.1285 164.802 23.8078C167.172 22.3766 169.747 21.5768 172.511 21.4815C176.299 21.3508 180.014 21.7317 183.481 23.4247C188.114 25.6873 190.496 29.6279 191.267 34.5251C191.711 37.349 191.742 40.2518 191.788 43.1219C191.866 48.0386 191.813 52.9574 191.81 57.8754C191.809 59.4958 191.81 59.5371 191.81 59.5371L183.268 59.5589H181.741C181.741 59.5589 181.744 47.8983 181.584 42.8242C181.518 40.7288 181.293 38.575 180.714 36.571C178.975 30.5544 175.22 29.4673 169.791 31.3555C166.476 32.5083 165.136 35.4211 164.548 38.5589C164.037 41.2876 163.87 44.1014 163.786 46.8846C163.673 50.6391 163.821 59.5487 163.821 59.5487C163.821 59.5487 163.489 59.5738 162.446 59.5542C159.808 59.5045 157.168 59.5136 154.529 59.5487C153.616 59.5608 153.268 59.5487 153.268 59.5487C153.268 59.5487 153.292 24.9572 153.27 8.28418C153.268 7.32065 153.27 7.04492 153.27 7.04492L163.249 7.03711C163.249 7.03711 163.275 7.38152 163.249 8.55081C163.138 13.5069 163.105 18.4648 163.044 23.422C163.039 23.8475 163.044 24.2732 163.044 24.9394Z" fill="url(#paint2_linear_801_3)"/>
<path d="M194.779 21.3691L204.885 21.3688V7.03711L215.465 7.05713V21.391L223.3 21.3624L223.344 30.0604L222.176 30.0851C222.176 30.0851 218.337 30.1022 216.419 30.0604C215.632 30.0433 215.362 30.3305 215.375 31.1017C215.438 34.977 215.362 38.8576 215.538 42.7271C215.73 46.9339 218.188 49.3783 222.372 49.8482C224.437 50.0802 224.5 50 224.5 50C224.573 52.0744 224.736 56.2826 224.783 58.3571C224.791 58.7326 224.783 59.4499 224.783 59.4499C220.621 59.5152 215.805 59.4577 211.915 57.6741C208.399 56.0625 206.457 53.1411 205.715 49.5008C205.201 46.9782 205.017 44.3669 204.918 41.7864C204.788 38.3937 204.889 34.9923 204.881 31.5947C204.88 31.1278 204.83 30.661 204.796 30.0734C203.218 30.0734 198.5 30.0936 198.5 30.0936L194.779 21.3691Z" fill="url(#paint3_linear_801_3)"/>
<path d="M58.4562 23.5143C60.1203 22.9802 61.7601 22.3754 63.4424 21.931C66.5751 21.1034 69.779 21.1642 72.9672 21.4792C74.3855 21.6193 76.8 22 78.3 22.5C78 23 77.6154 23.564 77.6154 23.564L73 30.5C73 30.5 72.1424 30.2422 71.679 30.1891C69.1022 29.8936 66.5757 29.9429 64.142 30.9548C61.0497 32.2407 59.0842 34.3617 58.9897 37.89C58.8773 42.0854 58.7213 46.2796 58.6145 50.4752C58.5494 53.0332 58.5178 55.5927 58.5193 58.1516C58.5199 59.18 58.5 59.5473 58.5193 59.5473C56.2008 59.501 51.0175 59.488 48.6999 59.5533C48.6999 59.5533 48.6885 59.1102 48.7016 58.0556C48.7467 54.4173 48.7186 50.7782 48.7186 47.1395C48.7184 39.3421 48.7174 31.5448 48.7191 23.7474C48.7194 22.0564 48.7185 22.0508 48.7185 22.0508C50.5981 22.0459 58.5 22.0406 58.5 22.0406C58.5 22.0406 58.5 23.5 58.4562 23.5143Z" fill="url(#paint4_linear_801_3)"/>
<path d="M87.3522 0.501953L94 7.16196L87.3522 14.0009L80.9629 7.16196L87.3522 0.501953Z" fill="url(#paint5_linear_801_3)"/>
<path d="M82.0936 40.6047C82.0936 34.807 82.0904 29.0094 82.0958 23.2118C82.0973 21.6933 82.0958 21.6309 82.0958 21.6309C84.6151 21.6255 92.6023 21.6113 92.6023 21.6113C92.6023 21.6113 92.6046 21.8884 92.6023 22.9591C92.5769 34.6742 92.5787 46.3895 92.6045 58.1046C92.6069 59.1899 92.6045 59.5511 92.6045 59.5511C92.6045 59.5511 84.5 59.5511 82.074 59.5511C82.074 59.5511 82.0663 59.1122 82.0731 57.9974C82.1085 52.2 82.0896 46.4023 82.0896 40.6047H82.0936Z" fill="url(#paint6_linear_801_3)"/>
<defs>
<linearGradient id="paint0_linear_801_3" x1="152" y1="79" x2="130.946" y2="11.823" gradientUnits="userSpaceOnUse">
<stop stop-color="#8F559F"/>
<stop offset="0.320556" stop-color="#8863A1"/>
<stop offset="0.625323" stop-color="#48A0B6"/>
<stop offset="0.966667" stop-color="#3FBFAF"/>
</linearGradient>
<linearGradient id="paint1_linear_801_3" x1="7.57542" y1="53.6661" x2="18.6278" y2="-39.6728" gradientUnits="userSpaceOnUse">
<stop stop-color="#613494"/>
<stop offset="0.492708" stop-color="#1982BD"/>
<stop offset="0.966667" stop-color="#3FBFAF"/>
</linearGradient>
<linearGradient id="paint2_linear_801_3" x1="176.5" y1="60" x2="179.787" y2="-3.14665" gradientUnits="userSpaceOnUse">
<stop offset="0.0330203" stop-color="#9F3594"/>
<stop offset="0.213814" stop-color="#A75D9D"/>
<stop offset="0.455682" stop-color="#897FA6"/>
<stop offset="0.966667" stop-color="#3FBFAF"/>
</linearGradient>
<linearGradient id="paint3_linear_801_3" x1="206" y1="54.5" x2="206.704" y2="7.09956" gradientUnits="userSpaceOnUse">
<stop stop-color="#BE499A"/>
<stop offset="0.966667" stop-color="#A681A8"/>
</linearGradient>
<linearGradient id="paint4_linear_801_3" x1="40" y1="72.5" x2="85.0865" y2="2.56886" gradientUnits="userSpaceOnUse">
<stop stop-color="#613494"/>
<stop offset="0.492708" stop-color="#1982BD"/>
<stop offset="0.966667" stop-color="#3FBFAF"/>
</linearGradient>
<linearGradient id="paint5_linear_801_3" x1="99.5" y1="4.5" x2="79.4956" y2="18.9269" gradientUnits="userSpaceOnUse">
<stop stop-color="#29B6B6"/>
<stop offset="1" stop-color="#2A9DB7"/>
</linearGradient>
<linearGradient id="paint6_linear_801_3" x1="92.2015" y1="13.5787" x2="89.119" y2="59.6702" gradientUnits="userSpaceOnUse">
<stop stop-color="#2AB8B5"/>
<stop offset="1" stop-color="#2D90B8"/>
</linearGradient>
</defs>
</svg>
