<svg width="27" height="27" viewBox="0 0 27 27" fill="none" xmlns="http://www.w3.org/2000/svg">
<path d="M19.6844 0.000366211H7.30606C3.27743 0.000366211 0 3.27892 0 7.30893V19.6917C0 23.7215 3.27743 27 7.30606 27H19.6846C23.713 27 26.9904 23.7215 26.9904 19.6917V7.30893C26.9904 3.27892 23.713 0.000366211 19.6844 0.000366211V0.000366211ZM13.4952 20.8827C9.42581 20.8827 6.11522 17.571 6.11522 13.5002C6.11522 9.4294 9.42581 6.11768 13.4952 6.11768C17.5646 6.11768 20.8752 9.4294 20.8752 13.5002C20.8752 17.571 17.5646 20.8827 13.4952 20.8827ZM21.0517 7.85872C19.8491 7.85872 18.871 6.88026 18.871 5.67727C18.871 4.47429 19.8491 3.49562 21.0517 3.49562C22.2542 3.49562 23.2326 4.47429 23.2326 5.67727C23.2326 6.88026 22.2542 7.85872 21.0517 7.85872Z" fill="#3F3A60"/>
<path d="M13.4969 7.69836C10.3002 7.69836 7.69922 10.3 7.69922 13.498C7.69922 16.6958 10.3002 19.2977 13.4969 19.2977C16.6938 19.2977 19.2946 16.6958 19.2946 13.498C19.2946 10.3 16.6938 7.69836 13.4969 7.69836Z" fill="#3F3A60"/>
<path d="M21.0515 5.0802C20.7216 5.0802 20.4531 5.34872 20.4531 5.67861C20.4531 6.00849 20.7216 6.27701 21.0515 6.27701C21.3816 6.27701 21.6501 6.0087 21.6501 5.67861C21.6501 5.34851 21.3816 5.0802 21.0515 5.0802Z" fill="#3F3A60"/>
</svg>
