<svg width="198" height="36" viewBox="0 0 198 36" fill="none" xmlns="http://www.w3.org/2000/svg">
<path d="M80.2858 14.0647C80.2147 13.1 79.613 13.0984 78.8429 13.6963C75.7091 16.1287 74.1735 15.674 72.6813 15.1682C71.1889 14.6625 70.564 11.5346 73.2105 11.5799C75.8586 11.6267 77.3028 14.3396 77.2058 16.963C77.1099 19.5853 75.5207 22.8505 71.6226 22.9426C67.7244 23.0346 66.0872 19.3544 66.0395 17.3299C65.9916 15.3057 66.9052 14.2473 67.1938 13.9726C67.4838 13.6963 67.5794 13.4655 67.2417 13.5123C64.498 14.0179 60.0226 18.9407 59.9733 20.4579C59.9401 21.5615 61.0075 21.8348 61.1292 20.3205C61.2263 19.1249 59.7326 16.2718 58.8669 15.6286C58.4348 16.5029 56.509 19.6305 54.776 21.747C54.3119 22.3137 53.1388 23.0348 52.2729 22.7133C51.4058 22.3902 50.8766 21.747 50.7807 20.7808V13.9728C50.3951 13.5125 47.1713 19.8603 46.2562 21.3788C45.3412 22.8973 43.511 23.6824 43.4648 21.0573C43.4168 18.3431 43.5125 14.9842 43.3198 14.3864C42.9034 13.0932 39.7582 19.5855 38.0252 21.702C37.5624 22.2671 36.7257 23.035 35.86 22.7133C34.9929 22.3904 34.6564 21.7472 34.5591 20.781C34.4635 19.8149 34.3185 14.3398 34.3185 14.3398C33.7414 13.6045 30.3248 20.8265 29.6981 21.9314C29.0516 23.0704 28.9281 22.8507 28.2539 22.4824C27.5797 22.1155 27.5797 22.0235 27.5317 21.0105C27.4838 19.9992 27.4621 16.7777 27.4838 15.6742C27.5317 13.1908 27.5317 10.8902 27.4838 8.58969C27.4361 6.29054 28.1582 3.66689 29.5052 1.96554C30.854 0.262783 34.2706 0.0799238 33.9822 4.40353C33.6484 9.40836 28.7833 13.8806 26.4252 14.9842C25.9408 15.2108 23.3132 16.3612 20.89 15.6288C17.0876 14.4784 19.2426 9.44817 22.5258 12.3621C23.8729 13.5577 24.3559 15.2138 24.3065 16.9166C24.2588 18.6191 23.1522 22.7585 19.012 22.9428C14.8733 23.1268 13.6697 19.3092 13.6216 17.9747C13.5912 17.1475 13.5738 16.0425 13.7653 15.6288C14.2046 14.6839 13.6697 15.031 13.3809 15.2138C11.2841 16.5511 9.77148 18.3431 8.32721 19.9524C4.17546 24.5833 3.46479 28.8785 3.32122 30.4424C3.17622 32.0063 3.46459 33.6156 4.66842 33.6624C6.68859 33.7389 7.84572 29.9352 7.94136 26.8074C8.06179 22.8975 6.25625 16.9632 6.11268 12.3621C5.96768 7.76242 8.08636 3.25315 8.47078 2.42589C8.85642 1.59722 8.6637 1.36754 7.6528 1.78128C5.2861 2.75019 2.69473 7.16423 2.79201 11.7641C2.88786 16.3638 4.09149 18.7564 6.25645 21.1946L5.43868 22.437L5.05426 22.0687C1.97281 19.1249 0.0409034 17.2847 0.000557314 11.7641C-0.0485953 5.27741 5.6996 1.00202 9.14519 0.309198C10.0588 0.125138 10.1082 0.769748 9.81961 1.73446C9.52961 2.70058 8.90455 6.24353 9.19312 10.0612C9.48189 13.8804 10.0705 17.653 10.2532 22.3448C10.5825 30.8715 6.13623 35.9628 3.85064 35.9628C1.82924 35.9628 1.49275 33.8463 1.49275 31.8675C1.49275 29.8898 2.88786 24.1397 7.65321 18.6191C12.4183 13.0986 16.1249 11.8109 17.2808 11.5799C18.435 11.3504 18.6757 11.6267 17.7606 12.5928C16.8456 13.5575 16.2682 14.7545 16.4134 16.6857C16.557 18.6193 17.665 20.5502 19.6866 20.4581C21.708 20.3675 22.8422 17.7921 22.8639 16.9166C22.9116 14.939 22.1344 14.4474 21.4194 13.6497C20.8423 13.0067 20.02 13.8226 21.1308 14.1569C22.8145 14.6627 24.7882 14.5238 26.2804 13.6497C27.7726 12.7756 32.2971 9.60242 32.2971 4.54077C32.2971 2.05757 32.0085 2.1496 31.6722 2.1496C31.3343 2.1496 30.2278 2.97707 30.1307 8.3134C30.0348 13.6497 30.1798 16.7323 30.1798 17.1927C30.1798 17.6532 30.1307 18.6191 30.8543 17.1927C31.5752 15.7662 33.7878 11.2117 35.6673 11.2117C36.9187 11.2117 37.4481 12.2701 37.4481 13.0067C37.4481 13.926 37.3989 18.7114 37.3989 19.3092C37.3989 19.8149 37.6889 19.8149 38.0254 19.4012C38.3617 18.9863 41.9728 13.6045 42.8383 12.1326C43.1995 11.5192 43.5866 11.1169 44.5713 11.0703C46.4973 10.9781 46.4479 13.834 46.4479 15.7208C46.4479 16.6857 46.4971 17.1461 46.4971 17.7907C46.4971 18.2496 46.6423 18.3431 47.0265 17.6064C47.46 16.7792 49.5773 12.6836 50.2996 11.9018C51.0218 11.1197 51.2684 10.801 52.0384 10.801C52.8085 10.801 54.0541 10.7982 54.0062 14.4786C53.9582 18.159 54.0062 19.907 54.0062 19.907C54.0062 20.1833 54.1991 20.3207 54.5356 19.8149C54.8718 19.3092 59.0601 12.4089 59.3963 11.3506C59.7328 10.2922 60.4072 10.8434 60.4552 11.5801C60.5031 12.3167 63.5366 16.4108 63.3916 18.9863C63.2481 21.5631 61.7559 22.7587 60.455 22.7135C59.1557 22.6681 58.5786 21.6083 58.5786 20.5968C58.5786 19.5855 59.7822 17.6532 61.1773 16.364C62.5737 15.0764 65.9453 11.3194 70.7555 11.1197C71.8635 11.0743 71.6706 11.9018 70.9005 12.593C70.1305 13.2828 69.2633 15.2138 69.3127 16.5483C69.3606 17.8827 70.2261 20.2287 72.4406 20.2287C74.6552 20.2287 75.6179 18.5273 75.6658 16.6403C75.7138 14.7547 74.7508 13.6965 74.3172 13.375C73.2774 12.6 72.3755 13.7958 73.8851 14.1569C75.2323 14.4786 77.3033 13.5125 78.6025 12.501C79.9018 11.488 80.2383 11.2117 81.4419 11.2572C82.6455 11.304 83.3183 12.593 83.3183 14.5238V17.1007C83.3183 17.469 83.7041 17.8373 84.1856 16.8246C84.4177 16.3358 85.8214 13.2362 87.0727 11.9484C88.3243 10.6594 88.7579 10.8434 89.2395 10.8434C89.7208 10.8434 90.9767 11.2117 90.9767 13.6965V19.4934C90.9767 20.1833 91.3537 20.2287 91.7453 19.7695C92.1221 19.3094 92.5574 18.8488 93.036 18.2962C93.5289 17.7453 94.7326 17.8373 93.8189 19.1251C92.891 20.4127 91.7887 23.1738 89.9137 23.127C88.0357 23.0816 87.6992 21.1026 87.6515 20.3675C87.6036 19.6307 87.4586 15.123 87.5065 14.5706C87.5544 14.0183 87.1657 14.1315 86.8814 14.6158C86.4479 15.3525 84.0838 19.9962 83.3677 21.1948C82.7891 22.1609 82.309 22.9428 81.5855 22.9428C80.8646 22.9428 80.3354 22.345 80.3354 20.8731C80.3354 19.4012 80.3833 15.3525 80.2862 14.0649L80.2858 14.0647ZM187.137 14.0647C187.064 13.1 186.47 13.0984 185.701 13.6963C182.569 16.1287 181.032 15.674 179.538 15.1682C178.044 14.6625 177.421 11.5346 180.075 11.5799C182.714 11.6267 184.164 14.3396 184.063 16.963C183.961 19.5853 182.38 22.8505 178.48 22.9426C174.578 23.0346 172.94 19.3544 172.896 17.3299C172.853 15.3057 173.766 14.2473 174.056 13.9726C174.346 13.6963 174.433 13.4655 174.1 13.5123C171.359 14.0179 166.878 18.9407 166.835 20.4579C166.791 21.5615 167.864 21.8348 167.98 20.3205C168.082 19.1249 166.588 16.2718 165.718 15.6286C165.283 16.5029 163.369 19.6305 161.629 21.747C161.165 22.3137 159.99 23.0348 159.134 22.7133C158.264 22.3902 157.728 21.747 157.64 20.7808V13.9728C157.249 13.5125 154.03 19.8603 153.116 21.3788C152.203 22.8973 150.361 23.6824 150.317 21.0573C150.274 18.3431 150.375 14.9842 150.172 14.3864C149.766 13.0932 146.619 19.5855 144.879 21.702C144.415 22.2671 143.588 23.035 142.718 22.7133C141.848 22.3904 141.515 21.7472 141.413 20.781C141.312 19.8149 141.181 14.3398 141.181 14.3398C140.601 13.6045 137.179 20.8265 136.555 21.9314C135.903 23.0704 135.787 22.8507 135.105 22.4824C134.438 22.1155 134.438 22.0235 134.394 21.0105C134.336 19.9992 134.322 16.7777 134.336 15.6742C134.394 13.1908 134.394 10.8902 134.336 8.58969C134.293 6.29054 135.018 3.66689 136.367 1.96554C137.715 0.262783 141.123 0.0799238 140.833 4.40353C140.5 9.40836 135.641 13.8806 133.278 14.9842C132.799 15.2108 130.174 16.3612 127.753 15.6288C123.939 14.4784 126.099 9.44817 129.377 12.3621C130.726 13.5577 131.204 15.2138 131.161 16.9166C131.117 18.6191 130.015 22.7585 125.867 22.9428C121.735 23.1268 120.531 19.3092 120.473 17.9747C120.444 17.1475 120.429 16.0425 120.618 15.6288C121.067 14.6839 120.531 15.031 120.241 15.2138C118.138 16.5511 116.63 18.3431 115.18 19.9524C111.032 24.5833 110.322 28.8785 110.176 30.4424C110.032 32.0063 110.322 33.6156 111.525 33.6624C113.541 33.7389 114.701 29.9352 114.803 26.8074C114.919 22.8975 113.121 16.9632 112.976 12.3621C112.831 7.76242 114.948 3.25315 115.325 2.42589C115.716 1.59722 115.513 1.36754 114.513 1.78128C112.149 2.75039 109.553 7.16443 109.655 11.7643C109.742 16.364 110.945 18.7566 113.121 21.1948L112.294 22.4372L111.917 22.0689C108.828 19.1251 106.899 17.2849 106.856 11.7643C106.812 5.27761 112.555 1.00222 116.006 0.309398C116.92 0.125338 116.963 0.769948 116.673 1.73466C116.383 2.70078 115.76 6.24373 116.05 10.0614C116.34 13.8806 116.935 17.6532 117.108 22.345C117.442 30.8717 112.99 35.963 110.713 35.963C108.683 35.963 108.349 33.8465 108.349 31.8677C108.349 29.89 109.742 24.1399 114.513 18.6193C119.269 13.0988 122.982 11.8111 124.142 11.5801C125.287 11.3506 125.534 11.6269 124.62 12.593C123.707 13.5577 123.127 14.7547 123.272 16.6857C123.417 18.6193 124.519 20.5502 126.549 20.4581C128.565 20.3675 129.696 17.7921 129.725 16.9166C129.768 14.939 128.985 14.4474 128.275 13.6497C127.695 13.0067 126.883 13.8226 127.985 14.1569C129.667 14.6627 131.639 14.5238 133.133 13.6497C134.626 12.7756 139.151 9.60242 139.151 4.54077C139.151 2.05757 138.861 2.1496 138.527 2.1496C138.194 2.1496 137.077 2.97707 136.99 8.3134C136.889 13.6497 137.034 16.7323 137.034 17.1927C137.034 17.6532 136.99 18.6191 137.715 17.1927C138.426 15.7662 140.645 11.2117 142.53 11.2117C143.777 11.2117 144.299 12.2701 144.299 13.0067C144.299 13.926 144.256 18.7114 144.256 19.3092C144.256 19.8149 144.546 19.8149 144.879 19.4012C145.213 18.9863 148.824 13.6045 149.694 12.1326C150.056 11.5192 150.448 11.1679 151.434 11.1197C153.348 11.0291 153.305 13.834 153.305 15.7208C153.305 16.6857 153.348 17.1461 153.348 17.7907C153.348 18.2496 153.493 18.3431 153.885 17.6064C154.32 16.7792 156.437 12.6836 157.162 11.9018C157.873 11.1197 158.061 10.8194 158.83 10.8194C159.439 10.8194 160.918 10.6296 160.86 14.4786C160.816 18.159 160.86 19.907 160.86 19.907C160.86 20.1833 161.048 20.3207 161.397 19.8149C161.73 19.3092 165.921 12.4089 166.254 11.3506C166.588 10.2922 167.27 10.8434 167.313 11.5801C167.357 12.3167 170.387 16.4108 170.243 18.9863C170.098 21.5631 168.619 22.7587 167.313 22.7135C166.008 22.6681 165.442 21.6083 165.442 20.5968C165.442 19.5855 166.632 17.6532 168.038 16.364C169.43 15.0764 172.795 11.3194 177.609 11.1197C178.726 11.0743 178.523 11.9018 177.754 12.593C176.986 13.2828 176.116 15.2138 176.174 16.5483C176.217 17.8827 177.087 20.2287 179.292 20.2287C181.51 20.2287 182.467 18.5273 182.525 16.6403C182.569 14.7547 181.612 13.6965 181.177 13.375C180.133 12.6 179.234 13.7958 180.742 14.1569C182.09 14.4786 184.164 13.5125 185.455 12.501C186.76 11.488 187.094 11.2117 188.297 11.2572C189.501 11.304 190.182 12.593 190.182 14.5238V17.1007C190.182 17.469 190.559 17.8373 191.038 16.8246C191.27 16.3358 192.677 13.2362 193.924 11.9484C195.185 10.6594 195.62 10.8434 196.099 10.8434C196.577 10.8434 197.825 11.2117 197.825 13.6965V19.4934C197.825 20.1833 198.216 20.2287 198.593 19.7695C198.985 19.3094 199.42 18.8488 199.898 18.2962C200.377 17.7453 201.581 17.8373 200.667 19.1251C199.753 20.4127 198.651 23.1738 196.766 23.127C194.895 23.0816 194.562 21.1026 194.504 20.3675C194.46 19.6307 194.315 15.123 194.359 14.5706C194.417 14.0181 194.025 14.1315 193.735 14.6158C193.3 15.3525 190.936 19.9962 190.226 21.1948C189.646 22.1609 189.167 22.9428 188.442 22.9428C187.717 22.9428 187.195 22.345 187.195 20.8731C187.195 19.4012 187.239 15.3525 187.137 14.0649" fill="#3F3A60"/>
</svg>
