<svg width="26" height="28" viewBox="0 0 26 28" fill="none" xmlns="http://www.w3.org/2000/svg">
<path fill-rule="evenodd" clip-rule="evenodd" d="M20.4329 26.9966V17.5005C20.4329 15.1333 19.7786 13.5995 17.8113 13.5995C17.1733 13.6098 16.5532 13.8198 16.032 14.202C15.5108 14.5841 15.1127 15.1207 14.8899 15.7415C14.668 16.1507 14.5282 16.6023 14.4788 17.069V26.9966H8.92148C8.92148 26.9966 9.00272 10.3161 8.92148 8.43643H14.4788V11.8895C14.467 11.9097 14.6872 11.9257 14.6754 11.9464L14.8757 11.8895C15.5979 10.6894 17.2987 8.54399 20.1839 8.54399C23.7586 8.54399 26 11.4967 26 16.9075V27.0092L20.4329 26.9966ZM0.0178508 8.43643H5.55079L5.67508 27.0092H0L0.0178508 8.43643ZM2.94254 5.99914C2.37091 6.00073 1.81169 5.82615 1.33566 5.49752C0.859634 5.16889 0.488192 4.70097 0.268382 4.15302C0.0485725 3.60506 -0.00972418 3.00169 0.100857 2.41931C0.211439 1.83692 0.485933 1.3017 0.889592 0.881396C1.29325 0.461096 1.80793 0.174617 2.36846 0.0582265C2.92899 -0.0581638 3.51017 0.000767627 4.03843 0.227561C4.56669 0.454354 5.01828 0.838809 5.33601 1.33226C5.65375 1.82571 5.82336 2.40596 5.82337 2.99956C5.82337 3.79371 5.5201 4.55546 4.98006 5.11776C4.44003 5.68006 3.70729 5.99702 2.94254 5.99914Z" fill="#3F3A60"/>
</svg>
